<svg xmlns="http://www.w3.org/2000/svg" width="336" height="336" viewBox="0 0 336 336">
  <g id="Group_1027" data-name="Group 1027" transform="translate(-6032 -4379)">
    <rect id="Rectangle_185" data-name="Rectangle 185" width="336" height="336" transform="translate(6032 4379)" fill="#fff"/>
    <g id="select" transform="translate(6102.748 4445.297)">
      <path id="Path_200" data-name="Path 200" d="M92.46,15.759A8.683,8.683,0,0,0,92.5,28.047l3.081,3.081a1.444,1.444,0,1,1-2.042,2.042l-7.184-7.184A8.662,8.662,0,1,0,74.1,38.235l7.184,7.184a1.444,1.444,0,1,1-2.042,2.042l-11.3-11.3A8.662,8.662,0,1,0,55.7,48.415L67,59.71a1.444,1.444,0,1,1-2.042,2.042l-40.04-40.04A8.662,8.662,0,1,0,12.666,33.961L60.853,82.148c-6.316-.983-16.943-1.4-23.469,5.113-6.125,6.125-5.963,10.361-4.064,12.269,5.18,5.18,9.168-3.005,32.77,8.271s38.771,10.351,49.141.153l14.291-14.291h0c14.53-14.53,18.689-34.392,4.026-49.046l-.076-.076L104.728,15.8a8.669,8.669,0,0,0-12.269-.038Z" transform="translate(81.809 105.91)" fill="#f7ce46"/>
      <path id="Path_201" data-name="Path 201" d="M181.262,0H28.62a28.62,28.62,0,0,0,0,57.241H181.262a28.62,28.62,0,1,0,0-57.241ZM28.62,38.16a9.54,9.54,0,1,1,9.54-9.54A9.544,9.544,0,0,1,28.62,38.16Zm38.16,0a9.54,9.54,0,1,1,9.54-9.54A9.544,9.544,0,0,1,66.781,38.16Z" fill="#11337d"/>
      <path id="Path_202" data-name="Path 202" d="M181.262,8H28.62a28.62,28.62,0,0,0,0,57.241H78.229a27.8,27.8,0,0,1,46.46-12.307l9.826,9.826a26.206,26.206,0,0,1,10.3-3.339,27.5,27.5,0,0,1,18.412-10.208c8.309-11.086,27.237-16.266,43.6.1a27.091,27.091,0,0,0,3.053-12.688A28.582,28.582,0,0,0,181.262,8ZM28.62,46.16a9.54,9.54,0,1,1,9.54-9.54A9.568,9.568,0,0,1,28.62,46.16Zm38.16,0a9.54,9.54,0,1,1,9.54-9.54A9.568,9.568,0,0,1,66.781,46.16Z" transform="translate(0 68.321)" fill="#11337d"/>
      <path id="Path_203" data-name="Path 203" d="M85.479,23.823A27.793,27.793,0,0,1,79.946,16H28.62a28.62,28.62,0,0,0,0,57.241H99.312c0-9.54,6.592-20.492,11.639-23.85ZM28.62,54.16a9.54,9.54,0,1,1,9.54-9.54A9.568,9.568,0,0,1,28.62,54.16Zm38.16,0a9.54,9.54,0,1,1,9.54-9.54A9.568,9.568,0,0,1,66.781,54.16Z" transform="translate(0 136.641)" fill="#11337d"/>
    </g>
  </g>
</svg>
