<svg xmlns="http://www.w3.org/2000/svg" width="336" height="336" viewBox="0 0 336 336">
  <g id="Group_1029" data-name="Group 1029" transform="translate(-6898 -4379)">
    <rect id="Rectangle_186" data-name="Rectangle 186" width="336" height="336" transform="translate(6898 4379)" fill="#fff"/>
    <g id="Group_1025" data-name="Group 1025" transform="translate(364.872 835.074)">
      <g id="car-compact" transform="translate(6596.479 3658.652)">
        <path id="Path_206" data-name="Path 206" d="M209.3,134.7a27.434,27.434,0,0,0-2.608-11.646c-.173-.915-.371-1.828-.618-2.754l-18.18-45.056-.123-.405C181.4,55.9,172.354,38.37,149.4,38.37H61.655c-23.516,0-31.826,17.964-38.326,36.364L4.312,119.9A27.806,27.806,0,0,0,0,134.7v14.02a27.257,27.257,0,0,0,.743,6.33A11.019,11.019,0,0,0,0,159.017v41.7a11.073,11.073,0,0,0,11.072,11.073H34.047a11.072,11.072,0,0,0,11.068-11.073V179.863H165.492v20.852a11.073,11.073,0,0,0,11.073,11.073h21.66A11.072,11.072,0,0,0,209.3,200.715v-41.7a11.086,11.086,0,0,0-.742-3.962,27.388,27.388,0,0,0,.742-6.331V134.7h0ZM36.822,79.258C44.061,58.834,49.882,52.6,61.655,52.6H149.4c11.687,0,18.194,6.954,24.807,26.571l13.267,26.885a40.606,40.606,0,0,0-14.108-2.494H35.931a40.792,40.792,0,0,0-12.8,2.038Zm11.4,74.788H23.977a7.907,7.907,0,0,1,0-15.814H48.218a7.907,7.907,0,0,1,0,15.814Zm85.635-1.584H77.466a5.007,5.007,0,0,1,0-10.014h56.387a5.007,5.007,0,1,1,0,10.014Zm50.854,1.584H160.467a7.907,7.907,0,0,1,0-15.814h24.241a7.907,7.907,0,1,1,0,15.814Z" transform="translate(0 -38.37)" fill="#11337d"/>
      </g>
      <g id="clean" transform="translate(6701.631 3575.926) rotate(20)">
        <path id="Path_207" data-name="Path 207" d="M57.18,33.143c-6.385,0-12.382-3.04-16.887-8.562a32.692,32.692,0,0,1-6.983-20.7C33.311,1.739,31.9,0,30.164,0s-3.147,1.739-3.147,3.884a32.692,32.692,0,0,1-6.984,20.7c-4.505,5.522-10.5,8.562-16.887,8.562C1.409,33.143,0,34.881,0,37.027s1.409,3.884,3.147,3.884c13.162,0,23.871,13.164,23.871,29.345,0,2.145,1.409,3.884,3.147,3.884s3.147-1.739,3.147-3.884c0-16.18,10.708-29.345,23.87-29.345,1.738,0,3.147-1.739,3.147-3.884S58.918,33.143,57.18,33.143Zm0,0" transform="translate(43.42 39.955) rotate(-16)" fill="#f7ce46" stroke="#fff" stroke-width="7"/>
        <path id="Path_208" data-name="Path 208" d="M40.743,18.766a15.865,15.865,0,0,1-15.9-15.789,2.978,2.978,0,0,0-5.956,0,15.865,15.865,0,0,1-15.9,15.789,2.978,2.978,0,1,0,0,5.956,15.89,15.89,0,0,1,15.9,15.837,2.978,2.978,0,1,0,5.956,0,15.889,15.889,0,0,1,15.9-15.837,2.978,2.978,0,0,0,0-5.956Zm0,0" transform="translate(0 28.161)" fill="#f7ce46"/>
        <path id="Path_209" data-name="Path 209" d="M2.978,20.578a11.666,11.666,0,0,1,11.7,11.607,2.978,2.978,0,1,0,5.956,0,11.684,11.684,0,0,1,11.7-11.644,2.978,2.978,0,0,0,0-5.956,11.666,11.666,0,0,1-11.7-11.607,2.978,2.978,0,0,0-5.956,0,11.684,11.684,0,0,1-11.7,11.644,2.978,2.978,0,1,0,0,5.956Zm0,0" transform="translate(42.61 0)" fill="#f7ce46"/>
      </g>
    </g>
  </g>
</svg>
