<svg xmlns="http://www.w3.org/2000/svg" width="336" height="336" viewBox="0 0 336 336">
  <g id="Group_1028" data-name="Group 1028" transform="translate(-6465 -4379)">
    <rect id="Rectangle_184" data-name="Rectangle 184" width="336" height="336" transform="translate(6465 4379)" fill="#fff"/>
    <g id="bill_2_" data-name="bill (2)" transform="translate(6527.999 4441.996)">
      <path id="Path_204" data-name="Path 204" d="M75.47,150.941H72.364a6.7,6.7,0,0,1-6.435-4.59,6.559,6.559,0,0,1,3.905-8.1l49.226-18.933a6.566,6.566,0,0,0,3.691-8.668C103.332,64.116,98.473,6.712,98.418,6.037a6.568,6.568,0,0,0-12-3.113L76.93,17.152,62.706,7.669A6.565,6.565,0,0,0,52.7,11.537L48.391,28.751,36.455,20.794a6.565,6.565,0,0,0-10.008,3.868L22.141,41.876,10.205,33.919A6.567,6.567,0,0,0,.021,39.887c.131,1.7,3.376,42.189,15.684,83.4,7.334,24.548,16.4,44.2,26.939,58.427a37.45,37.45,0,0,0,30.188,15.164h2.288a22.97,22.97,0,1,0,.348-45.938ZM33.281,81.19a6.565,6.565,0,0,1,3.659-8.531L69.752,59.533a6.564,6.564,0,0,1,4.873,12.19C39.09,85.937,41.187,85.316,39.376,85.316A6.568,6.568,0,0,1,33.281,81.19ZM48.375,111.1A6.564,6.564,0,0,1,43.5,98.909L76.315,85.784a6.564,6.564,0,0,1,4.873,12.19Zm128.814.468c-1.714,0,1.676-1.111-45.77,17.136-.058-.1-31.741,12.136-31.688,12.115a3.282,3.282,0,0,0-.928,5.575A36.088,36.088,0,0,1,91,206.487,1.85,1.85,0,0,0,91.784,210a32.86,32.86,0,0,0,15.251-3.708L177.8,177.159a6.521,6.521,0,0,0,3.56-1.464c19.178-7.893,18.278-7.313,19.581-8.675C220.766,146.235,205.914,111.566,177.189,111.566Z" transform="translate(0 0)" fill="#11337d"/>
      <path id="Path_205" data-name="Path 205" d="M376.331,95.705c-2.559,2.558-10.573,2.551-13.125,0a6.562,6.562,0,0,0-9.281,9.281,20.6,20.6,0,0,0,11.2,5.384v6.945a6.563,6.563,0,1,0,13.125,0V109.4c17.223-5.854,16.73-28.916.987-35.436L369.163,69.79c-5.244-2.172-6.187-11.537,4.449-11.537,3.205,0,5.606.966,6.563,1.922a6.562,6.562,0,0,0,9.281-9.281,20.6,20.6,0,0,0-11.2-5.384V38.565a6.563,6.563,0,0,0-13.125,0v7.914c-17.074,5.8-16.865,28.86-.987,35.436l10.077,4.174a5.932,5.932,0,0,1,2.113,9.616Z" transform="translate(-207.626 -18.874)" fill="#f7ce46"/>
    </g>
  </g>
</svg>
